<svg width="167" height="81" viewBox="0 0 167 81" fill="none" xmlns="http://www.w3.org/2000/svg">
<path d="M0.0078125 68L16.0234 12.5312H27.3516L43.3672 68H35.1641L31.5312 54.4844H11.8438L8.21094 68H0.0078125ZM13.8359 47.0625H29.5391L22.0391 19.25H21.3359L13.8359 47.0625ZM62.5859 68.7812C58.8359 68.7812 55.2422 68.4688 51.4922 68V9.40625H59.7734V34.0938H60.5547C60.9453 28.5469 64.3047 25.8125 70.7109 25.8125C81.7266 25.8125 88.0547 32.6094 88.0547 44.5625C88.0547 59.9531 78.7969 68.7812 62.5859 68.7812ZM59.7734 44.7188V61.6328C61.2578 61.75 62.7422 61.75 64.2266 61.75C74.1875 61.75 79.8516 55.5 79.8516 44.5625C79.8516 37.0625 76.4141 32.8438 70.3203 32.8438C63.2891 32.8438 59.7734 36.75 59.7734 44.7188ZM119.422 68.7812C105.32 68.7812 97.3125 61.125 97.3125 47.2188C97.3125 33.7031 104.852 25.8125 118.328 25.8125C126.375 25.8125 132.391 28.9375 134.852 34.4062L128.484 39.2109C126.141 35.4219 122.352 33.2344 118.016 33.2344C110.203 33.2344 105.672 38.1562 105.672 46.8281C105.672 56.2812 110.945 61.3594 120.359 61.3594C124.227 61.3594 128.094 60.9688 131.766 60.3438L132.703 67.6094C128.406 68.5469 123.758 68.7812 119.422 68.7812ZM158.25 80.1094V0.421875H166.375V80.1094H158.25Z" fill="black"/>
</svg>
