<svg width="258" height="49" viewBox="0 0 258 49" fill="none" xmlns="http://www.w3.org/2000/svg">
<rect width="86" height="49" fill="black"/>
<rect x="172" width="86" height="49" fill="black"/>
<path d="M169 26.5C169.828 26.5 170.5 25.8284 170.5 25C170.5 24.1716 169.828 23.5 169 23.5L169 26.5ZM85.9393 23.9393C85.3536 24.5251 85.3536 25.4749 85.9393 26.0607L95.4853 35.6066C96.0711 36.1924 97.0208 36.1924 97.6066 35.6066C98.1924 35.0208 98.1924 34.0711 97.6066 33.4853L89.1213 25L97.6066 16.5147C98.1924 15.9289 98.1924 14.9792 97.6066 14.3934C97.0208 13.8076 96.0711 13.8076 95.4853 14.3934L85.9393 23.9393ZM169 23.5L87 23.5L87 26.5L169 26.5L169 23.5Z" fill="black"/>
</svg>
